<svg width="19" height="20" viewBox="0 0 19 20" fill="none" xmlns="http://www.w3.org/2000/svg">
<path d="M9.75781 0.625C4.92969 0.625 1.01953 4.53516 1.01953 9.36328C1.01953 11.3086 1.65625 13.1055 2.73047 14.5586L0.503906 19.375L1.08594 19.1055L5.57031 17.0352C6.8125 17.7148 8.23828 18.1016 9.75391 18.1016C14.5781 18.1016 18.4922 14.1914 18.4922 9.36328C18.4961 4.53516 14.582 0.625 9.75781 0.625ZM14.418 13.0938C14.3672 13.3359 14.2617 13.5664 14.1094 13.7695C13.9219 14.0195 13.6797 14.207 13.4023 14.3242C13.125 14.4414 12.8203 14.4883 12.5156 14.4492C11.6992 14.3516 10.9102 14.0898 10.2031 13.668C9.38672 13.1836 8.28906 12.4297 7.46094 11.3516C6.57813 10.3164 6.09766 9.10547 5.79297 8.20312C5.53125 7.42578 5.4375 6.59766 5.51172 5.78125C5.53906 5.47266 5.64844 5.18359 5.82031 4.9375C5.99219 4.69141 6.23047 4.49219 6.51172 4.36328C6.74219 4.25391 6.99219 4.20312 7.23828 4.20312C7.58984 4.20312 8.01953 4.19922 8.31641 4.41016C8.77734 4.73438 8.97266 5.375 8.97266 5.9375C8.97266 5.98828 8.96875 6.04297 8.96484 6.09375C8.9375 6.40234 8.91016 6.67188 8.73437 6.91797C8.5625 7.16406 8.24609 7.37891 7.96484 7.51172C8.17969 8.66797 8.55078 9.52734 9.0625 10.082C9.28125 10.3867 9.57813 10.6758 9.95703 10.9453C10.3359 11.2148 10.793 11.4609 11.3359 11.6875C11.5234 11.4414 11.8008 11.1758 12.0781 11.0586C12.3516 10.9414 12.625 10.9687 12.9297 11.0078C12.9805 11.0156 13.0352 11.0234 13.0859 11.0352C13.6328 11.1523 14.2187 11.4766 14.4414 11.9961C14.582 12.332 14.4922 12.75 14.418 13.0938Z" fill="#97C49A"/>
</svg>
